# xmcd
#
# Track frame offsets:
#	150
#	12567
#	31215
#	48718
#	64077
#	81039
#	94135
#	112483
#	131932
#	150302
#	160911
#	176497
#	192812
#	209380
#
# Disc length: 2999 seconds
#
# Revision: 1
# Processed by: cddbd v1.5.2PL0 Copyright (c) Steve Scherf et al.
# Submitted via: EZCDAudioConverter 6.1.0.1
#
DISCID=c20bb50e
DTITLE=Ronnie Milsap - Just For A Thrill
DYEAR=2004
DGENRE=Country
TTITLE0=I Don't Want Nobody To Have My Love But You
TTITLE1=Teach Me Tonight
TTITLE2=Cry
TTITLE3=Make Believe Medley (Make Believe, I'm Gonna Sit Right Down And Write 
TTITLE3=Myself A Letter)
TTITLE4=Bewitched
TTITLE5=Haunted Heart
TTITLE6=But I Do
TTITLE7=Since I Fell For You
TTITLE8=Every Time We Say Goodbye
TTITLE9=But Not For Me
TTITLE10=In The Wee Small Hours Of The Morning
TTITLE11=Just For A Thrill
TTITLE12=My Funny Valentine
TTITLE13=My Babe
EXTD=
EXTT0=
EXTT1=
EXTT2=
EXTT3=
EXTT4=
EXTT5=
EXTT6=
EXTT7=
EXTT8=
EXTT9=
EXTT10=
EXTT11=
EXTT12=
EXTT13=
PLAYORDER=
